<svg width="27" height="20" viewBox="0 0 27 20" fill="none" xmlns="http://www.w3.org/2000/svg">
<path d="M25.4444 8.11111C25.3333 7.88889 25.1111 7.77778 25 7.77778H20V8.88889H25.8889L25.4444 8.11111ZM17.6667 0.333333C17.6667 0.111111 17.4444 0 17.2222 0H9.44444C9.22222 0 9 0.111111 9 0.333333L8.55555 1.11111H18.1111L17.6667 0.333333ZM26.6667 10.4444C26.5556 10.1111 26.3333 10 26.1111 10H18.8889V2.55556C18.7778 2.33333 18.5556 2.22222 18.3333 2.22222H8.33333C8.11111 2.22222 7.88889 2.33333 7.77778 2.55556V8.88889H0.555556C0.333333 8.88889 0.111111 9 0 9.22222V19.4444C0 19.7778 0.222222 20 0.555556 20H26.1111C26.4444 20 26.6667 19.7778 26.6667 19.4444V10.4444ZM5.55555 15.5556C5.88889 15.5556 6.11111 15.7778 6.11111 16.1111C6.11111 16.4444 5.88889 16.6667 5.55555 16.6667H3.33333C3.11111 16.6667 2.88889 16.5556 2.77778 16.3333C2.66667 16.1111 2.77778 15.8889 2.88889 15.7778L4.33333 14.3333C4.77778 13.8889 5 13.4444 5 12.7778C5 12.4444 4.77778 12.2222 4.44444 12.2222C4.11111 12.2222 3.88889 12.4444 3.88889 12.7778C3.88889 13.1111 3.66667 13.3333 3.33333 13.3333C3 13.3333 2.77778 13.1111 2.77778 12.7778C2.77778 11.8889 3.55556 11.1111 4.44444 11.1111C5.33333 11.1111 6.11111 11.8889 6.11111 12.7778C6.11111 13.6667 5.77778 14.4444 5.11111 15.1111L4.66667 15.5556H5.55555ZM14.4444 11.6667C14.4444 12 14.2222 12.2222 13.8889 12.2222C13.5556 12.2222 13.3333 12 13.3333 11.6667V7.44444L13.2222 7.55556C13 7.77778 12.6667 7.77778 12.4444 7.55556C12.2222 7.33333 12.2222 7 12.4444 6.77778L13.5556 5.66667C13.6667 5.55556 13.8889 5.55556 14.1111 5.55556C14.3333 5.66667 14.4444 5.88889 14.4444 6.11111V11.6667ZM23.8889 16.1111C23.8889 17 23.1111 17.7778 22.2222 17.7778C21.3333 17.7778 20.5556 17 20.5556 16.1111C20.5556 15.7778 20.7778 15.5556 21.1111 15.5556C21.4444 15.5556 21.6667 15.7778 21.6667 16.1111C21.6667 16.4444 21.8889 16.6667 22.2222 16.6667C22.5556 16.6667 22.7778 16.4444 22.7778 16.1111C22.7778 15.7778 22.5556 15.5556 22.2222 15.5556C21.8889 15.5556 21.6667 15.3333 21.6667 15C21.6667 14.6667 21.8889 14.4444 22.2222 14.4444C22.5556 14.4444 22.7778 14.2222 22.7778 13.8889C22.7778 13.5556 22.5556 13.3333 22.2222 13.3333C21.8889 13.3333 21.6667 13.5556 21.6667 13.8889C21.6667 14.2222 21.4444 14.4444 21.1111 14.4444C20.7778 14.4444 20.5556 14.2222 20.5556 13.8889C20.5556 13 21.3333 12.2222 22.2222 12.2222C23.1111 12.2222 23.8889 13 23.8889 13.8889C23.8889 14.3333 23.7778 14.6667 23.4444 15C23.7778 15.3333 23.8889 15.6667 23.8889 16.1111ZM6.66667 6.66667H1.66667C1.44444 6.66667 1.22222 6.77778 1.22222 7L0.777778 7.77778H6.66667V6.66667Z" fill="url(#paint0_linear_2908_121)"/>
<defs>
<linearGradient id="paint0_linear_2908_121" x1="13.3333" y1="0" x2="13.3333" y2="20" gradientUnits="userSpaceOnUse">
<stop stop-color="#7B85F1"/>
<stop offset="1" stop-color="#949CDD"/>
</linearGradient>
</defs>
</svg>
