<svg width="32" height="32" viewBox="0 0 32 32" fill="none" xmlns="http://www.w3.org/2000/svg">
<g id="Icon/LeftNav/Multiplayer">
<g id="Group 201">
<path id="Vector" d="M11.3487 13.7078C11.3487 11.139 13.4311 9.05664 15.9999 9.05664C18.5687 9.05664 20.651 11.139 20.651 13.7078C20.651 15.6 19.521 17.2284 17.899 17.9549C21.2154 18.7267 23.7519 21.474 23.7519 24.8694C23.7519 25.3832 23.3355 25.7996 22.8217 25.7996H9.17828C8.66453 25.7996 8.24805 25.3832 8.24805 24.8694C8.24805 21.474 10.7846 18.7269 14.1008 17.9549C12.4787 17.2284 11.3487 15.6002 11.3487 13.7078Z" fill="url(#paint0_linear_7788_1348)"/>
<path id="Vector_2" d="M10.4183 5.33337C7.84957 5.33337 5.76716 7.41577 5.76716 9.98455C5.76716 11.8768 6.8972 13.5052 8.51925 14.2316C5.20303 15.0037 2.6665 17.7508 2.6665 21.1462C2.6665 21.6599 3.08299 22.0764 3.59674 22.0764H6.85291C7.53155 20.1161 8.9032 18.4959 10.6406 17.4049C9.91424 16.355 9.4881 15.0806 9.4881 13.7054C9.4881 10.6979 11.5271 8.16657 14.2982 7.41841C13.4654 6.1619 12.0386 5.33337 10.4183 5.33337Z" fill="url(#paint1_linear_7788_1348)"/>
<path id="Vector_3" d="M25.1466 22.0764C24.4681 20.116 23.0963 18.4958 21.3589 17.4048C22.0852 16.3549 22.5112 15.0804 22.5112 13.7054C22.5112 10.6979 20.4723 8.16657 17.7012 7.41841C18.5339 6.1619 19.9608 5.33337 21.581 5.33337C24.1498 5.33337 26.2322 7.41577 26.2322 9.98455C26.2322 11.8768 25.1022 13.5051 23.4802 14.2316C26.7965 15.0035 29.3331 17.7507 29.3331 21.1462C29.3331 21.6599 28.9166 22.0764 28.4028 22.0764H25.1466Z" fill="url(#paint2_linear_7788_1348)"/>
</g>
</g>
<defs>
<linearGradient id="paint0_linear_7788_1348" x1="16" y1="9.05664" x2="16" y2="25.7996" gradientUnits="userSpaceOnUse">
<stop stop-color="#7B85F1"/>
<stop offset="1" stop-color="#949CDD"/>
</linearGradient>
<linearGradient id="paint1_linear_7788_1348" x1="8.48233" y1="5.33337" x2="8.48233" y2="22.0764" gradientUnits="userSpaceOnUse">
<stop stop-color="#7B85F1"/>
<stop offset="1" stop-color="#949CDD"/>
</linearGradient>
<linearGradient id="paint2_linear_7788_1348" x1="23.5171" y1="5.33337" x2="23.5171" y2="22.0764" gradientUnits="userSpaceOnUse">
<stop stop-color="#7B85F1"/>
<stop offset="1" stop-color="#949CDD"/>
</linearGradient>
</defs>
</svg>
