<svg viewBox="0 0 30 30" fill="none" xmlns="http://www.w3.org/2000/svg">
  <path d="M20.3032 16.2506C20.3032 16.659 20.141 17.0507 19.8522 17.3395C19.5634 17.6283 19.1717 17.7905 18.7633 17.7905C18.3548 17.7905 17.9631 17.6283 17.6743 17.3395C17.3855 17.0507 17.2233 16.659 17.2233 16.2506C17.2233 15.8422 17.3855 15.4505 17.6743 15.1617C17.9631 14.8729 18.3548 14.7106 18.7633 14.7106C19.1717 14.7106 19.5634 14.8729 19.8522 15.1617C20.141 15.4505 20.3032 15.8422 20.3032 16.2506ZM11.2305 17.79C11.6388 17.79 12.0303 17.6278 12.319 17.3391C12.6077 17.0504 12.7699 16.6589 12.7699 16.2506C12.7699 15.8423 12.6077 15.4507 12.319 15.162C12.0303 14.8733 11.6388 14.7111 11.2305 14.7111C10.8222 14.7111 10.4306 14.8733 10.1419 15.162C9.85323 15.4507 9.69104 15.8423 9.69104 16.2506C9.69104 16.6589 9.85323 17.0504 10.1419 17.3391C10.4306 17.6278 10.8222 17.79 11.2305 17.79ZM11.6486 19.5795C11.4699 19.4743 11.2573 19.4429 11.0558 19.4918C10.8543 19.5407 10.6798 19.6661 10.5692 19.8414C10.4586 20.0168 10.4205 20.2283 10.4631 20.4312C10.5057 20.6341 10.6257 20.8124 10.7975 20.9285L11.1645 21.1604C12.3114 21.8838 13.6396 22.2676 14.9955 22.2676C16.3515 22.2676 17.6797 21.8838 18.8266 21.1604L19.1936 20.9295C19.2823 20.8736 19.3592 20.8008 19.4197 20.7152C19.4803 20.6297 19.5234 20.533 19.5467 20.4307C19.5699 20.3285 19.5727 20.2227 19.555 20.1193C19.5374 20.016 19.4995 19.9171 19.4436 19.8284C19.3877 19.7397 19.3149 19.6629 19.2293 19.6023C19.1438 19.5417 19.0471 19.4986 18.9448 19.4754C18.8426 19.4521 18.7368 19.4493 18.6334 19.467C18.5301 19.4846 18.4312 19.5225 18.3425 19.5784L17.9755 19.8103C17.0834 20.373 16.0503 20.6717 14.9955 20.6717C13.9408 20.6717 12.9077 20.373 12.0156 19.8103L11.6486 19.5795Z" fill="currentColor"/>
  <path fillRule="evenodd" clipRule="evenodd" d="M23.4684 3.75C22.5396 3.75 21.7279 4.2596 21.3002 5.01389L17.4702 4.22768C17.2897 4.19071 17.102 4.21735 16.9389 4.30306C16.7758 4.38877 16.6474 4.52829 16.5755 4.69792C16.1382 5.72562 15.4829 7.28421 14.935 8.61831C14.7414 9.09067 14.5605 9.53644 14.4084 9.92156C12.2306 10.0088 10.2135 10.578 8.56342 11.5004C8.29782 11.055 7.92984 10.6793 7.49003 10.4045C7.05021 10.1298 6.55122 9.96386 6.03445 9.92052C5.51768 9.87719 4.99802 9.95769 4.51858 10.1553C4.03914 10.353 3.61375 10.6621 3.27767 11.0571C2.94159 11.452 2.70453 11.9214 2.58614 12.4263C2.46775 12.9312 2.47145 13.457 2.59692 13.9602C2.7224 14.4634 2.96604 14.9294 3.30764 15.3196C3.64923 15.7098 4.07893 16.0129 4.5611 16.2038C4.42067 16.7144 4.34726 17.2432 4.34726 17.79C4.34726 20.0688 5.63349 22.0583 7.5655 23.4467C9.49963 24.8371 12.1295 25.6712 14.9999 25.6712C17.8692 25.6712 20.5001 24.8371 22.4343 23.4477C24.3663 22.0583 25.6525 20.0688 25.6525 17.79C25.6525 17.2432 25.578 16.7134 25.4397 16.2048C25.9217 16.0138 26.3513 15.7107 26.6927 15.3205C27.0342 14.9304 27.2777 14.4644 27.4031 13.9613C27.5286 13.4583 27.5322 12.9325 27.4139 12.4277C27.2955 11.923 27.0585 11.4537 26.7226 11.0587C26.3866 10.6638 25.9613 10.3547 25.482 10.157C25.0027 9.95928 24.4832 9.87866 23.9665 9.92183C23.4499 9.96501 22.9509 10.1307 22.5111 10.4052C22.0712 10.6798 21.7032 11.0552 21.4374 11.5004C19.9193 10.6524 18.0915 10.1024 16.1148 9.95135C16.2085 9.72155 16.3074 9.47686 16.4127 9.22366C16.8574 8.13744 17.3766 6.89908 17.7894 5.92244L21.0002 6.58205C21.0653 7.05616 21.2656 7.50149 21.577 7.86485C21.8885 8.22821 22.2979 8.49424 22.7565 8.63115C23.2151 8.76806 23.7034 8.77008 24.163 8.63695C24.6227 8.50382 25.0343 8.24118 25.3488 7.8804C25.6632 7.51962 25.8671 7.07595 25.9362 6.60239C26.0053 6.12883 25.9365 5.6454 25.7382 5.20985C25.54 4.77429 25.2205 4.40503 24.818 4.14616C24.4155 3.88729 23.9469 3.74976 23.4684 3.75ZM22.5726 6.2416C22.5726 6.00389 22.667 5.7759 22.8351 5.60781C23.0032 5.43972 23.2312 5.34529 23.4689 5.34529C23.7066 5.34529 23.9346 5.43972 24.1027 5.60781C24.2708 5.7759 24.3652 6.00389 24.3652 6.2416C24.3652 6.47932 24.2708 6.70731 24.1027 6.8754C23.9346 7.04349 23.7066 7.13792 23.4689 7.13792C23.2312 7.13792 23.0032 7.04349 22.8351 6.8754C22.667 6.70731 22.5726 6.47932 22.5726 6.2416ZM14.9999 11.5057C15.1637 11.5057 15.3265 11.5089 15.4893 11.5153C15.4876 11.5489 15.4833 11.5823 15.4765 11.6153L15.4744 11.6206L15.4776 11.6099L15.5084 11.5163C17.8745 11.6078 19.9778 12.3355 21.5023 13.4313C23.1375 14.6058 24.0567 16.158 24.0567 17.7911C24.0567 19.4252 23.1364 20.9774 21.5034 22.153C19.8693 23.3254 17.5734 24.0765 14.9999 24.0765C12.4264 24.0765 10.1305 23.3254 8.49746 22.1519C6.86227 20.9774 5.94308 19.4252 5.94308 17.7911C5.94308 16.158 6.86227 14.6058 8.49639 13.4313C10.1316 12.2546 12.4274 11.5036 14.9999 11.5036V11.5057ZM4.09512 13.1706C4.09521 12.7993 4.21938 12.4386 4.4479 12.1459C4.67642 11.8531 4.9962 11.6451 5.35644 11.5549C5.71669 11.4647 6.09674 11.4974 6.43626 11.6479C6.77577 11.7984 7.05527 12.058 7.23038 12.3855C6.38034 13.0557 5.67392 13.8462 5.17283 14.7303C4.85604 14.6106 4.58323 14.3972 4.39071 14.1186C4.19818 13.84 4.09508 13.5093 4.09512 13.1706ZM24.8269 14.7303C24.3258 13.8473 23.6194 13.0547 22.7694 12.3855C22.8965 12.1481 23.0792 11.9451 23.3018 11.7938C23.5245 11.6424 23.7806 11.5473 24.0481 11.5166C24.3156 11.4859 24.5865 11.5204 24.8377 11.6173C25.0889 11.7142 25.3129 11.8705 25.4905 12.0729C25.6681 12.2753 25.794 12.5177 25.8574 12.7793C25.9208 13.041 25.9199 13.3141 25.8546 13.5754C25.7894 13.8366 25.6618 14.0781 25.4829 14.2793C25.3039 14.4804 25.0788 14.6352 24.8269 14.7303Z" fill="currentColor"/>
</svg>
